{"accessors" : [{"bufferView" : 0, "byteOffset" : 0, "componentType" : 5125, "count" : 98280, "type" : "SCALAR", "max" : [98279], "min" : [0]}, {"bufferView" : 1, "byteOffset" : 0, "componentType" : 5126, "count" : 98280, "type" : "VEC3", "max" : [103.74037170410156, 104.10734558105469, 195.02272033691406], "min" : [-103.74037170410156, -104.84065246582031, 6.406546162907034E-05], "name" : "POSITION"}, {"bufferView" : 1, "byteOffset" : 12, "componentType" : 5126, "count" : 98280, "type" : "VEC3", "max" : [0.991553008556366, 0.9913045167922974, 1.0000044107437134], "min" : [-0.9915532469749451, -0.991304337978363, -1.0000044107437134], "name" : "NORMAL"}], "asset" : {"generator" : "Aspose.3D 22.10", "version" : "2.0"}, "buffers" : [{"uri" : "data:application/octet-stream;base64,", "byteLength" : 2751848}], "bufferViews" : [{"buffer" : 0, "byteOffset" : 0, "byteLength" : 393120, "target" : 34963}, {"buffer" : 0, "byteOffset" : 393124, "byteLength" : 2358720, "byteStride" : 24, "target" : 34962}], "meshes" : [{"primitives" : [{"attributes" : {"POSITION" : 1, "NORMAL" : 2}, "indices" : 0, "mode" : 4}], "name" : ""}], "nodes" : [{"mesh" : 0, "name" : ""}], "scene" : 0, "scenes" : [{"nodes" : [0]}]}